<svg width="512" height="116" xmlns="http://www.w3.org/2000/svg">

 <g>
  <title>background</title>
  <rect fill="#ffffff" id="canvas_background" height="118" width="514" y="-1" x="-1"/>
 </g>
 <g>
  <title>Layer 1</title>
  <g id="svg_1" fill-rule="evenodd" fill="none">
   <g id="svg_2">
    <path id="svg_3" fill="#1A1918" d="m489.71819,8.64613l21.42063,0.1177c0,0 -39.82516,53.96402 -43.07666,58.36212c-1.05637,1.42418 -2.66103,2.96018 -3.47414,4.864c-2.05683,4.78651 -4.16859,15.28545 -4.16859,15.28545l-19.5992,0.09711c0,0 3.04944,-10.94327 2.92389,-16.77242c-0.11083,-5.09253 -2.71007,-10.1782 -4.16858,-15.28545c-1.47323,-5.16905 -3.47415,-15.28546 -3.47415,-15.28546l20.14946,0l2.77873,11.11687l30.68861,-42.49992"/>
    <path id="svg_4" fill="#1A1918" d="m449.15739,20.02685c3.9528,2.38345 6.37843,15.52871 6.37843,15.52871c0,0 -20.68402,0.30504 -31.94017,0.30504l-9.72702,0l-11.81131,51.4148l-18.06419,0c0,0 11.24144,-55.87469 13.89561,-66.00484c0.86118,-3.27896 5.89192,-2.71694 14.38896,-2.71694l13.56898,0c8.76187,0 19.00285,-1.11816 23.31071,1.47323"/>
    <path id="svg_5" fill="#1A1918" d="m365.05992,45.06679c0,0 0.56301,-3.30054 -1.91068,-7.1219c-2.11175,-3.25836 -4.06363,-4.01557 -9.62207,-4.18918c-15.69545,-0.49337 -15.3904,11.13747 -15.3904,11.13747l26.92315,0.17361l0,0zm17.02253,-13.31887c2.30008,8.29597 -2.08429,27.79121 -2.08429,27.79121c0,0 -22.89385,-0.38253 -35.43393,0c-3.89885,0.11868 -8.56668,-0.42373 -9.72702,1.38985c-1.6331,2.54235 0.59635,6.45493 2.48644,8.10765c2.17551,1.90381 6.41275,2.1196 7.93502,2.31381c10.1782,1.29275 31.48113,0.33348 31.48113,0.33348l-3.68993,16.34085c0,0 -30.10403,1.50853 -45.16095,-2.08429c-2.97294,-0.70817 -5.75951,-2.13922 -7.64273,-4.16859c-0.51396,-0.55515 -0.95926,-1.31237 -1.44576,-1.96561c-0.38841,-0.5218 -1.52031,-2.2373 -2.02838,-3.59282c-3.43884,-9.16402 0.40312,-26.72111 4.16858,-36.12837c0.43745,-1.0907 0.98673,-2.47271 1.56444,-3.64776c0.7219,-1.46538 1.33297,-3.11908 1.9097,-3.99497c0.38842,-0.6042 0.86903,-0.99359 1.27216,-1.56346c0.46492,-0.67384 1.00634,-1.32708 1.50755,-1.9097c1.38888,-1.61251 2.96607,-2.75225 4.86302,-4.16859c6.27347,-4.69725 17.62673,-8.34501 31.26535,-6.94829c5.13471,0.5277 12.88926,2.36187 16.67531,7.64273c1.01419,1.41045 1.51442,4.20978 2.08429,6.25287l0,0l0,0z"/>
    <path id="svg_6" fill="#1A1918" d="m299.22869,18.49085l17.51589,-0.10397c0,0 -9.76135,46.30756 -14.73618,68.88852l-20.14946,0c-14.08294,0 -26.624,1.74394 -31.95978,-8.33814c-5.17591,-9.78882 -0.23639,-25.88739 2.08429,-36.82379c1.63997,-7.73983 5.09352,-23.55985 5.09352,-23.55985l18.14755,-0.16674c0,0 -5.12785,24.62995 -7.26118,36.92776c-0.76408,4.40496 -2.34029,8.55295 -0.69444,11.81131c1.56347,3.09946 3.75173,3.32113 10.42146,3.47414c2.11274,0.04904 9.03258,0 9.03258,0l12.50575,-52.10924"/>
    <path id="svg_7" fill="#1A1918" d="m217.24395,51.84049c1.83418,-6.51672 4.50894,-13.58271 4.16859,-19.45404c-0.36782,-6.28034 -5.63397,-11.99865 -9.03161,-13.20018c-10.23411,-3.61343 -19.81498,1.43791 -23.62262,5.55745c-4.92677,5.33677 -6.5942,11.56905 -8.33814,20.14946c-1.29864,6.37057 -2.36187,13.09621 0,18.06418c4.18231,8.78247 17.2236,6.86492 31.26535,6.9483c2.08429,-5.58591 3.80763,-11.86036 5.55843,-18.06517l0,0l0,0zm24.31804,-25.70691c2.00092,14.54884 -5.67614,30.60622 -10.96386,44.57048c5.39169,0.4865 10.11641,-0.07552 10.45677,0.32662c0.35408,0.52181 -3.61343,16.66845 -4.99642,16.70964c-4.27941,0.11182 -18.45946,0.22952 -24.37296,0.22952c-19.29416,0 -37.34462,1.25744 -46.54983,-8.33717c-3.73799,-3.89787 -6.32251,-10.58231 -6.94829,-15.28545c-1.04263,-7.85165 0.26385,-16.49484 2.08429,-23.62262c1.64684,-6.43433 3.75859,-12.50673 6.9483,-18.06517c8.10764,-14.15258 22.21216,-24.65741 45.85538,-22.23276c4.58544,0.47276 11.1718,2.48055 15.28546,4.86302c0.28444,0.16772 1.27902,0.95926 1.50755,1.09854c5.55844,3.53692 10.62351,11.97805 11.69361,19.74535l0,0l0,0z"/>
    <path id="svg_8" fill="#1A1918" d="m156.19335,18.57422c-1.1672,5.31519 -2.33441,11.33953 -3.56438,16.59194l-19.45404,0c1.50755,-5.82228 2.66102,-11.61024 4.16858,-16.67531c6.22541,0 12.01336,0.08337 18.84984,0.08337"/>
    <path id="svg_9" fill="#1A1918" d="m132.48049,40.02918l18.75862,0c-2.45211,13.57683 -7.30826,35.47611 -11.11589,50.71939c-2.38345,9.53968 -3.97438,16.5017 -10.42244,21.53833c-0.57673,0.45216 -0.90924,0.23736 -1.38887,0.69541c-1.18878,1.13288 -6.68445,2.44623 -9.72702,2.77873c-4.94737,0.53554 -10.54014,0.06964 -16.6194,-0.05493c1.59092,-5.81541 3.39077,-12.79803 4.80809,-18.00925c14.81955,1.79298 15.19522,-12.21444 18.06418,-25.70691c1.66057,-7.79574 6.69131,-28.83384 7.64273,-31.96077"/>
    <g id="svg_10" fill="#21609B">
     <path id="svg_11" d="m88.70841,75.464096l-0.40214,1.04165c-6.85119,13.33946 -18.98912,21.5246 -36.30296,21.88555c-8.09392,0.16674 -15.80628,-1.9097 -20.84389,-4.16858c-10.87265,-4.8846 -20.01704,-13.94367 -25.0115,-23.62262c-7.16407,-13.87501 -8.45584,-33.17603 6.44022,-47.59246c0.22952,0 -1.80671,3.12594 -1.5772,3.12594l-0.40999,1.33395c-10.73434,33.60662 22.33674,62.40613 54.48484,59.11246c7.7261,-0.79154 17.57867,-5.0229 23.62262,-11.11589"/>
     <path id="svg_12" d="m69.25438,61.567506c8.08803,0.05591 16.53603,-3.72426 21.53832,-9.0316c-4.37652,11.11001 -17.04901,18.25153 -34.04407,15.97989c-14.22909,-1.90381 -27.78434,-16.22314 -29.18106,-30.57091c-1.02106,-10.44205 2.61885,-16.67433 8.61573,-24.23368c-2.0843,3.95377 -2.86309,7.00322 -3.05729,8.94823c-2.2785,22.58783 18.04358,38.79037 36.12837,38.90807"/>
     <path id="svg_13" d="m89.98057,33.512456c-1.25744,2.88368 -8.49704,8.3303 -11.69361,9.01101c-12.65876,2.69633 -20.76641,-3.30642 -25.01248,-10.13701c-0.63166,-1.02106 -1.79886,-3.80666 -2.00778,-4.5158c-1.64684,-5.59964 -0.88963,-14.06922 4.02342,-18.45358c-1.4801,4.16858 -1.69588,9.011 -0.91709,12.15853c0.47178,1.90381 1.9097,5.22593 3.34859,7.3161c2.61885,3.80763 4.27942,4.73257 7.64273,6.75409c1.51442,0.91022 3.13968,1.63997 3.84196,1.84104c3.18872,0.93768 9.92123,3.41137 20.77426,-3.97438"/>
    </g>
   </g>
  </g>
 </g>
</svg>